<svg xmlns="http://www.w3.org/2000/svg" viewBox="0 0 838.00 838.00" width="48" height="48" color="currentColor" role="img" aria-label="JYP glyph">
  <g fill="currentColor" fill-rule="evenodd">
    <path d="M 703.00 64.00 L 564.00 18.00 L 381.00 16.00 L 178.00 59.00 L 64.00 127.00 L 76.00 170.00 L 175.00 197.00 L 350.00 187.00 L 397.00 161.00 L 379.00 133.00 L 480.00 161.00 L 461.00 187.00 L 387.00 208.00 L 165.00 210.00 L 277.00 233.00 L 461.00 221.00 L 510.00 198.00 L 527.00 160.00 L 487.00 126.00 L 397.00 109.00 L 304.00 118.00 L 345.00 141.00 L 324.00 157.00 L 222.00 160.00 L 178.00 141.00 L 191.00 111.00 L 320.00 75.00 L 472.00 76.00 L 561.00 108.00 L 603.00 173.00 L 586.00 312.00 L 496.00 513.00 L 363.00 690.00 L 207.00 825.00 L 498.00 675.00 L 603.00 584.00 L 690.00 472.00 L 751.00 351.00 L 778.00 235.00 L 763.00 134.00 Z"/>
  </g>
</svg>
