<svg xmlns="http://www.w3.org/2000/svg" viewBox="255.0 187.0 743.0 743.0" fill="#000">
<g fill-rule="evenodd">
    <path d="M 373.0 793.0 L 438.0 793.0 L 458.0 790.0 L 479.0 784.0 L 480.0 790.0 L 477.0 807.0 L 477.0 864.0 L 514.0 847.0 L 538.0 832.0 L 551.0 822.0 L 575.0 797.0 L 597.0 845.0 L 628.0 894.0 L 643.0 877.0 L 664.0 845.0 L 678.0 816.0 L 686.0 793.0 L 727.0 833.0 L 757.0 854.0 L 775.0 864.0 L 777.0 842.0 L 776.0 804.0 L 773.0 787.0 L 775.0 783.0 L 784.0 787.0 L 815.0 793.0 L 880.0 794.0 L 870.0 774.0 L 855.0 752.0 L 842.0 738.0 L 828.0 727.0 L 803.0 715.0 L 737.0 701.0 L 706.0 690.0 L 700.0 697.0 L 717.0 709.0 L 757.0 729.0 L 792.0 741.0 L 827.0 757.0 L 849.0 772.0 L 857.0 780.0 L 832.0 781.0 L 808.0 779.0 L 785.0 774.0 L 766.0 767.0 L 755.0 761.0 L 692.0 703.0 L 680.0 712.0 L 668.0 718.0 L 674.0 734.0 L 678.0 753.0 L 678.0 768.0 L 675.0 785.0 L 666.0 811.0 L 656.0 832.0 L 644.0 852.0 L 629.0 871.0 L 627.0 870.0 L 627.0 727.0 L 608.0 725.0 L 590.0 719.0 L 583.0 739.0 L 579.0 761.0 L 571.0 779.0 L 562.0 792.0 L 552.0 803.0 L 529.0 822.0 L 492.0 843.0 L 489.0 842.0 L 508.0 802.0 L 537.0 760.0 L 575.0 711.0 L 566.0 704.0 L 562.0 703.0 L 496.0 763.0 L 486.0 768.0 L 469.0 774.0 L 445.0 779.0 L 423.0 781.0 L 396.0 780.0 L 414.0 765.0 L 434.0 753.0 L 499.0 728.0 L 534.0 711.0 L 556.0 697.0 L 550.0 690.0 L 521.0 700.0 L 454.0 714.0 L 429.0 725.0 L 415.0 735.0 L 401.0 749.0 L 387.0 768.0 Z"/>
    <path d="M 925.0 674.0 L 912.0 680.0 L 903.0 690.0 L 898.0 704.0 L 899.0 718.0 L 904.0 729.0 L 915.0 739.0 L 926.0 743.0 L 941.0 743.0 L 951.0 739.0 L 962.0 729.0 L 967.0 718.0 L 968.0 703.0 L 962.0 688.0 L 954.0 680.0 L 941.0 674.0 Z"/>
    <path d="M 311.0 674.0 L 300.0 679.0 L 289.0 691.0 L 285.0 702.0 L 286.0 719.0 L 291.0 729.0 L 300.0 738.0 L 312.0 743.0 L 331.0 742.0 L 343.0 735.0 L 351.0 725.0 L 355.0 711.0 L 354.0 700.0 L 350.0 690.0 L 338.0 678.0 L 328.0 674.0 Z"/>
    <path d="M 498.0 562.0 L 478.0 585.0 L 457.0 601.0 L 438.0 611.0 L 399.0 625.0 L 372.0 638.0 L 354.0 650.0 L 343.0 660.0 L 354.0 666.0 L 373.0 653.0 L 397.0 641.0 L 441.0 625.0 L 466.0 612.0 L 485.0 597.0 L 498.0 582.0 Z"/>
    <path d="M 552.0 514.0 L 542.0 521.0 L 530.0 535.0 L 525.0 545.0 L 521.0 561.0 L 521.0 585.0 L 526.0 610.0 L 533.0 630.0 L 544.0 652.0 L 556.0 669.0 L 570.0 684.0 L 587.0 697.0 L 601.0 704.0 L 615.0 708.0 L 633.0 709.0 L 650.0 706.0 L 666.0 699.0 L 683.0 687.0 L 703.0 666.0 L 713.0 652.0 L 726.0 626.0 L 733.0 605.0 L 738.0 578.0 L 737.0 557.0 L 728.0 534.0 L 714.0 519.0 L 708.0 515.0 L 688.0 508.0 L 673.0 508.0 L 655.0 513.0 L 633.0 527.0 L 610.0 513.0 L 594.0 508.0 L 574.0 507.0 Z M 565.0 654.0 L 570.0 648.0 L 576.0 647.0 L 589.0 660.0 L 599.0 660.0 L 620.0 654.0 L 637.0 654.0 L 659.0 660.0 L 668.0 660.0 L 678.0 651.0 L 683.0 650.0 L 690.0 655.0 L 691.0 662.0 L 679.0 675.0 L 667.0 679.0 L 660.0 679.0 L 633.0 673.0 L 623.0 673.0 L 590.0 679.0 L 576.0 673.0 L 568.0 664.0 Z M 653.0 574.0 L 657.0 568.0 L 667.0 564.0 L 690.0 563.0 L 704.0 568.0 L 709.0 574.0 L 709.0 579.0 L 703.0 586.0 L 697.0 586.0 L 686.0 582.0 L 675.0 582.0 L 661.0 586.0 L 654.0 581.0 Z M 574.0 561.0 L 586.0 560.0 L 591.0 563.0 L 596.0 570.0 L 596.0 582.0 L 587.0 591.0 L 575.0 591.0 L 567.0 584.0 L 565.0 580.0 L 566.0 569.0 Z M 644.0 548.0 L 648.0 542.0 L 662.0 536.0 L 674.0 533.0 L 692.0 533.0 L 710.0 540.0 L 715.0 546.0 L 715.0 553.0 L 709.0 559.0 L 703.0 559.0 L 688.0 553.0 L 677.0 553.0 L 667.0 555.0 L 656.0 560.0 L 651.0 560.0 L 645.0 555.0 Z M 547.0 539.0 L 556.0 532.0 L 570.0 528.0 L 592.0 529.0 L 603.0 532.0 L 617.0 539.0 L 622.0 545.0 L 625.0 553.0 L 625.0 603.0 L 620.0 608.0 L 609.0 614.0 L 609.0 620.0 L 627.0 629.0 L 632.0 629.0 L 642.0 623.0 L 650.0 621.0 L 651.0 614.0 L 646.0 611.0 L 645.0 604.0 L 650.0 599.0 L 656.0 598.0 L 667.0 604.0 L 673.0 611.0 L 675.0 622.0 L 672.0 629.0 L 665.0 635.0 L 648.0 640.0 L 634.0 648.0 L 622.0 647.0 L 609.0 639.0 L 593.0 634.0 L 587.0 628.0 L 584.0 617.0 L 588.0 607.0 L 593.0 602.0 L 606.0 595.0 L 606.0 557.0 L 601.0 552.0 L 585.0 548.0 L 572.0 548.0 L 558.0 553.0 L 553.0 553.0 L 547.0 548.0 Z"/>
    <path d="M 899.0 291.0 L 888.0 297.0 L 883.0 302.0 L 877.0 313.0 L 875.0 322.0 L 877.0 337.0 L 882.0 346.0 L 892.0 355.0 L 906.0 360.0 L 920.0 359.0 L 929.0 355.0 L 940.0 344.0 L 945.0 330.0 L 944.0 315.0 L 938.0 303.0 L 928.0 294.0 L 917.0 290.0 Z"/>
    <path d="M 717.0 299.0 L 697.0 312.0 L 678.0 331.0 L 664.0 352.0 L 653.0 376.0 L 644.0 407.0 L 639.0 435.0 L 635.0 497.0 L 650.0 489.0 L 666.0 484.0 L 693.0 483.0 L 699.0 470.0 L 709.0 455.0 L 731.0 432.0 L 744.0 423.0 L 764.0 414.0 L 789.0 409.0 L 811.0 409.0 L 840.0 415.0 L 866.0 427.0 L 884.0 440.0 L 900.0 457.0 L 908.0 469.0 L 918.0 490.0 L 928.0 528.0 L 930.0 572.0 L 927.0 600.0 L 918.0 638.0 L 909.0 659.0 L 899.0 611.0 L 883.0 564.0 L 864.0 529.0 L 855.0 517.0 L 838.0 500.0 L 823.0 490.0 L 808.0 484.0 L 798.0 482.0 L 780.0 482.0 L 753.0 489.0 L 732.0 502.0 L 741.0 511.0 L 752.0 527.0 L 759.0 546.0 L 761.0 564.0 L 775.0 586.0 L 790.0 601.0 L 812.0 616.0 L 873.0 646.0 L 900.0 666.0 L 915.0 658.0 L 923.0 656.0 L 933.0 631.0 L 940.0 604.0 L 944.0 571.0 L 944.0 547.0 L 941.0 520.0 L 932.0 485.0 L 920.0 460.0 L 907.0 442.0 L 894.0 429.0 L 873.0 414.0 L 845.0 402.0 L 815.0 396.0 L 786.0 396.0 L 764.0 400.0 L 736.0 412.0 L 723.0 422.0 L 721.0 421.0 L 723.0 404.0 L 731.0 381.0 L 742.0 363.0 L 758.0 346.0 L 777.0 333.0 L 802.0 323.0 L 830.0 318.0 L 857.0 318.0 L 864.0 298.0 L 843.0 291.0 L 817.0 286.0 L 773.0 284.0 L 747.0 288.0 Z"/>
    <path d="M 880.0 280.0 L 856.0 262.0 L 815.0 242.0 L 764.0 228.0 L 719.0 223.0 L 676.0 225.0 L 638.0 233.0 L 607.0 245.0 L 577.0 263.0 L 555.0 283.0 L 545.0 296.0 L 536.0 312.0 L 529.0 331.0 L 526.0 346.0 L 525.0 368.0 L 529.0 396.0 L 534.0 412.0 L 533.0 414.0 L 508.0 404.0 L 479.0 397.0 L 445.0 396.0 L 429.0 399.0 L 409.0 406.0 L 379.0 424.0 L 353.0 449.0 L 338.0 470.0 L 327.0 491.0 L 319.0 512.0 L 311.0 553.0 L 311.0 582.0 L 314.0 606.0 L 319.0 627.0 L 330.0 656.0 L 339.0 658.0 L 343.0 613.0 L 350.0 583.0 L 359.0 558.0 L 379.0 522.0 L 385.0 514.0 L 407.0 493.0 L 424.0 483.0 L 447.0 476.0 L 471.0 476.0 L 500.0 484.0 L 529.0 500.0 L 542.0 491.0 L 560.0 484.0 L 584.0 482.0 L 569.0 458.0 L 551.0 419.0 L 541.0 383.0 L 540.0 350.0 L 546.0 325.0 L 555.0 307.0 L 568.0 290.0 L 586.0 274.0 L 619.0 255.0 L 644.0 246.0 L 678.0 239.0 L 716.0 237.0 L 757.0 241.0 L 803.0 253.0 L 843.0 271.0 L 869.0 289.0 Z"/>
  </g>
</svg>